# xmcd
#
# Track frame offsets:
#	150
#	14758
#	33512
#	51179
#	63080
#	74863
#	90118
#	105657
#	119668
#	134778
#	149790
#	165256
#	179081
#	190637
#
# Disc length: 2730 seconds
#
# Revision: 1
# Processed by: cddbd v1.5.2PL0 Copyright (c) Steve Scherf et al.
# Submitted via: audiograbber 1.83.01
#
DISCID=d50aa80e
DTITLE=Charley Pride - Pride and Joy: A Gospel Music Collection
DYEAR=2006
DGENRE=Gospel
TTITLE0=God's Coloring Book
TTITLE1=Jesus, It's Me Again
TTITLE2=Mansions for Me
TTITLE3=I'm Gonna Sing
TTITLE4=He Set Me Free
TTITLE5=Amazing Grace
TTITLE6=Family Bible
TTITLE7=Just a Closer Walk with Thee
TTITLE8=Take My Hand Precious Lord
TTITLE9=One Day at a Time
TTITLE10=Nobody Answered Me
TTITLE11=Jesus Hold My Hand
TTITLE12=Thank God
TTITLE13=Gospel Medley: I'll Fly Away/The Church in the Wildwood/I Saw the Ligh
TTITLE13=t
EXTD=
EXTT0=
EXTT1=
EXTT2=
EXTT3=
EXTT4=
EXTT5=
EXTT6=
EXTT7=
EXTT8=
EXTT9=
EXTT10=
EXTT11=
EXTT12=
EXTT13=
PLAYORDER=
